<?xml version="1.0" encoding="utf-8"?>
<svg class="rootHeader-logo" viewBox="0 0 270 155" xmlns="http://www.w3.org/2000/svg" fill-rule="evenodd" clip-rule="evenodd" stroke-linejoin="round" stroke-miterlimit="1.414"><g fill="#fff"><path d="M200.294 89.145c-1.415-6.842-4.122-12.5-8.027-17.65-8.002-10.56-20.964-17.235-38.508-17.235-27.28 0-44.05 18.52-49.01 38.044-4.46-13.766-16.4-23.053-29.01-26.977 9.49-6.917 14.46-16.814 14.46-28.11 0-10.487-4.365-20.032-11.67-26.244C67.81 1.86 53.2 0 35.194 0H0v151.975c9.972 0 20.222-.044 30.214 0 8.89.04 17.572-.012 25.668-.336 25.626-1.03 43.166-13.93 48.78-33.3 1.928 8.61 5.636 15.63 10.478 20.96 9.868 10.86 24.175 15.11 38.583 15.11 17.74 0 30.566-5.15 39.328-13.03l-12.54-14.74c-6.31 4.76-14.42 7.56-23.53 7.56-17.86-.056-25.74-11.36-26.45-22.23h69.77v40h26.13V.76H200.3v88.385l-.004.002zM26.85 20.532l7.262-.004c7.012 0 12.55.754 16.538 2.302 7.874 3.055 11.617 9.316 11.617 17.137.01 6.613-2.52 17.005-16.432 19.846-2.327.475-5.68.738-10.415.738h-8.57V20.534zm29.542 109.2c-3.27.588-7.27.72-10.52.72H26.85V80.87h17.02c5.373 0 11.452.603 14.935 1.515 11.94 3.133 18.8 11.695 18.8 23.033 0 11.74-6.316 21.628-21.213 24.312v.002zm74.62-36.65c2.302-11.07 10.485-19.038 22.545-19.038 12.073 0 20.104 7.14 22.185 19.038h-44.73z" fill-rule="nonzero"></path><path d="M243.868.76h25.686v151.214h-25.686z"></path></g></svg>
