<svg xmlns="http://www.w3.org/2000/svg" width="10.21in" height="3.38in" viewBox="0 0 734.95 243.63"><defs><style>.a{fill:#fff;}</style></defs><title>Citytv_White</title><path class="a" d="M160,90.12c-1.86-19.91-14.35-31.35-34-31.35-22.05,0-35.34,18.88-35.34,55.82,0,26.83,5.85,52.08,37.74,52.08,20.19,0,29.75-14.08,32.15-32.43h60.31c-5.57,49.42-40.91,79.18-91.4,79.18C66.23,213.42,28,174.64,28,112.46,28,50.55,69.94,12,123.36,12c58.45,0,91.14,29,96.18,78.11Z" transform="translate(-27.96 -12.01)"/><path class="a" d="M228.74,208.38V69.15H284V208.38Zm0-196.37H284V51.34H228.74Z" transform="translate(-27.96 -12.01)"/><path class="a" d="M389.15,208.35c-72.55,4-81.31-1-81.31-49.16V101H283.75V69.11h24.88V25.8h54.48V69.11h26.57V101H363.11V151.5c0,12.75,1.86,17.26,17.28,17.26h8.76Z" transform="translate(-27.96 -12.01)"/><path class="a" d="M458.06,154.94l24.18-85.83h53.15l-44.64,130c-14.61,43-20.46,56.58-69.62,56.58-10.1,0-20.19-1-24.46-1V216.06c4,0,7.72.27,11.44.27,17.28,0,21.26-5.05,15.67-20.47L378.07,69.11h55.55Z" transform="translate(-27.96 -12.01)"/><path class="a" d="M617.24,208.35c-72.54,4-81.31-1-81.31-49.16V101H516.27V69.11h20.45V25.8H591.2V69.11h26.57V101H591.2V151.5c0,12.75,1.86,17.26,17.27,17.26h8.77Z" transform="translate(-27.96 -12.01)"/><path class="a" d="M605.87,69.11h55.29l24.43,88,24.18-88h53.14l-47,139.24H654.23Z" transform="translate(-27.96 -12.01)"/><polyline class="a" points="716.52 186.76 724.3 186.76 724.3 187.91 721.05 187.91 721.05 196.35 719.76 196.35 719.76 187.91 716.52 187.91"/><path class="a" d="M761.34,208.36V202.7c0-.28,0-1.5,0-2.39h0l-2.67,8.05h-1.31l-2.7-8h0c0,.88,0,2.1,0,2.38v5.66h-1.24v-9.59h1.85l2.75,8.11h0l2.72-8.11h1.84v9.59Z" transform="translate(-27.96 -12.01)"/></svg>