<?xml version="1.0" encoding="utf-8"?>
<!-- Generator: Adobe Illustrator 22.0.1, SVG Export Plug-In . SVG Version: 6.00 Build 0)  -->
<svg version="1.1" id="TOU.TV" xmlns="http://www.w3.org/2000/svg" xmlns:xlink="http://www.w3.org/1999/xlink" x="0px" y="0px"
	 viewBox="0 0 198 50.2" style="enable-background:new 0 0 198 50.2;" xml:space="preserve">
<style type="text/css">
	.st0{fill:#FFFFFF;}
</style>
<g>
	<g>
		<path class="st0" d="M0,16.8c0-1.1,0.9-2,2-2s2,0.9,2,2v16.7c0,1.1-0.8,2.1-2,2.1c-1.1,0-2-0.9-2-2.1V16.8z"/>
		<path class="st0" d="M27.2,16.8c0-1.1,0.9-2,2-2s2,0.9,2,2v16.7c0,1.1-0.8,2.1-2,2.1c-1.1,0-2-0.9-2-2.1V16.8z"/>
		<path class="st0" d="M20.2,29.3c0.4-0.7,0.8-1.2,1.7-1.2s1.9,0.8,1.9,1.9c0,0.4,0,0.6-0.2,1.1c-1.3,2.9-4.4,4.6-7.6,4.6
			c-4.9,0-8.3-3.6-8.7-8.3c-0.1-1.5-0.1-3.1,0-4.6c0.4-4.7,3.8-8.3,8.7-8.3c3.3,0,6.4,1.7,7.6,4.6c0.2,0.5,0.2,0.7,0.2,1.1
			c0,1.1-1,1.9-1.9,1.9s-1.4-0.6-1.7-1.2c-0.8-1.6-2.3-2.6-4.1-2.6c-2.8,0-4.6,2.1-4.8,4.9c-0.1,1.2-0.1,2.5,0,3.7
			c0.2,2.9,1.9,4.8,4.8,4.8C17.9,31.9,19.4,30.9,20.2,29.3"/>
	</g>
	<g>
		<path class="st0" d="M137.3,23.1c-0.3-4.7-4.1-8.2-8.7-8.2c-4.6,0-8.3,3.5-8.6,8.2c-0.1,1.6-0.1,2.8,0,4.4c0.3,4.8,4,8.2,8.6,8.2
			c4.6,0,8.4-3.5,8.7-8.2C137.4,25.9,137.4,24.6,137.3,23.1 M128.6,33.2c-3.2,0-5.7-2.4-6-5.8c-0.1-1.5-0.1-2.7,0-4.2
			c0.3-3.4,2.8-5.8,6-5.8c3.3,0,5.8,2.4,6.1,5.8c0.1,1.5,0.1,2.7,0,4.2C134.4,30.8,131.9,33.2,128.6,33.2"/>
		<path class="st0" d="M197,14.9c-0.1,0-0.3-0.1-0.4-0.1c-0.6,0-1.1,0.3-1.2,0.9l-6.3,17.2c0,0.1-0.1,0.2-0.2,0.2
			c-0.1,0-0.2-0.1-0.2-0.2l-6.3-17.2c-0.2-0.5-0.7-0.8-1.2-0.8c-0.2,0-0.3,0-0.5,0.1c-0.3,0.1-0.6,0.4-0.7,0.7c-0.1,0.3-0.2,0.7,0,1
			l6.3,16.9c0.6,1.5,1.5,2.2,2.7,2.2s2.1-0.7,2.7-2.2l6.3-16.9C198,16,197.7,15.2,197,14.9"/>
		<path class="st0" d="M155.8,14.9c-0.7,0-1.3,0.6-1.3,1.3V27c0,3.7-2.3,6.2-5.7,6.2s-5.7-2.5-5.7-6.2V16.2c0-0.7-0.6-1.3-1.3-1.3
			s-1.3,0.6-1.3,1.3V27c0,5,3.5,8.7,8.3,8.7s8.3-3.6,8.3-8.7V16.2C157.1,15.5,156.5,14.9,155.8,14.9"/>
		<path class="st0" d="M117.8,14.9h-12.7c-0.7,0-1.3,0.6-1.3,1.3c0,0.7,0.6,1.3,1.3,1.3h5.1v16.6c0,0.7,0.6,1.3,1.3,1.3
			s1.3-0.6,1.3-1.3V17.5h5c0.8,0,1.3-0.6,1.3-1.3C119.2,15.5,118.6,14.9,117.8,14.9"/>
		<path class="st0" d="M176.5,14.9h-12.7c-0.7,0-1.3,0.6-1.3,1.3c0,0.7,0.6,1.3,1.3,1.3h5.1v16.6c0,0.7,0.6,1.3,1.3,1.3
			s1.3-0.6,1.3-1.3V17.5h5c0.8,0,1.3-0.6,1.3-1.3C177.8,15.5,177.2,14.9,176.5,14.9"/>
		<path class="st0" d="M161.3,31.8c-1,0-1.8,0.8-1.8,1.8s0.8,1.8,1.8,1.8s1.8-0.8,1.8-1.8S162.3,31.8,161.3,31.8"/>
	</g>
	<g>
		<circle class="st0" cx="68.9" cy="25.1" r="9"/>
		<g>
			<path class="st0" d="M49.6,25.1c0,4.9,4,9,9,9v-18C53.6,16.1,49.6,20.2,49.6,25.1z"/>
			<path class="st0" d="M79.3,16.1L79.3,16.1v18l0,0c4.9,0,9-4,9-9S84.2,16.1,79.3,16.1z"/>
			<path class="st0" d="M68.9,44.4c4.9,0,9-4,9-9H60C60,40.4,64,44.4,68.9,44.4z"/>
			<path class="st0" d="M60,14.8L60,14.8h17.9l0,0c0-4.9-4-9-9-9C64,5.8,60,9.8,60,14.8z"/>
		</g>
		<g>
			<path class="st0" d="M50.1,14.8h8.5V6.3C53.9,6.3,50.1,10.1,50.1,14.8z"/>
			<path class="st0" d="M79.3,6.3L79.3,6.3v8.5h8.5C87.8,10.1,84,6.3,79.3,6.3z"/>
			<path class="st0" d="M50.1,35.4h8.5v8.5C53.9,43.9,50.1,40.1,50.1,35.4z"/>
			<path class="st0" d="M79.3,43.9L79.3,43.9v-8.5h8.5C87.8,40.1,84,43.9,79.3,43.9z"/>
		</g>
		<g>
			<g>
				<path class="st0" d="M89.6,32.8V17.4c2.6,1.6,4.4,4.4,4.4,7.7S92.2,31.2,89.6,32.8z"/>
				<path class="st0" d="M48.2,17.4v15.4c-2.6-1.6-4.4-4.4-4.4-7.7C43.9,21.8,45.6,19,48.2,17.4z"/>
			</g>
			<g>
				<path class="st0" d="M76.6,4.4H61.2C62.8,1.8,65.6,0,68.9,0C72.2,0,75.1,1.8,76.6,4.4z"/>
				<path class="st0" d="M61.2,45.8h15.4c-1.6,2.6-4.4,4.4-7.7,4.4C65.7,50.2,62.8,48.4,61.2,45.8z"/>
			</g>
		</g>
	</g>
</g>
</svg>
